<?xml version="1.0" standalone="no"?>
<!DOCTYPE svg PUBLIC "-//W3C//DTD SVG 20010904//EN"
 "http://www.w3.org/TR/2001/REC-SVG-20010904/DTD/svg10.dtd">
<svg version="1.0" xmlns="http://www.w3.org/2000/svg"
 width="275.000000pt" height="275.000000pt" viewBox="0 0 275.000000 275.000000"
 preserveAspectRatio="xMidYMid meet">
<metadata>
Created by potrace 1.14, written by Peter Selinger 2001-2017
</metadata>
<g transform="translate(0.000000,275.000000) scale(0.100000,-0.100000)"
fill="#000000" stroke="none">
<path d="M1317 2527 c-12 -5 -34 -7 -49 -4 -16 2 -28 0 -28 -3 0 -4 -11 -8
-25 -9 -56 -4 -65 -6 -65 -12 0 -4 -21 -12 -47 -19 -27 -6 -73 -24 -104 -40
-32 -16 -60 -26 -63 -23 -3 4 -6 1 -6 -5 0 -6 -13 -18 -29 -27 -17 -8 -57 -38
-90 -65 -34 -28 -61 -49 -61 -46 0 2 -22 -17 -50 -43 -58 -55 -76 -95 -60
-135 12 -32 35 -58 44 -49 3 4 6 1 6 -6 0 -15 63 -13 95 2 11 6 49 35 85 66
97 85 139 114 205 146 33 16 62 29 65 30 3 0 30 8 60 17 30 9 69 19 85 22 17
2 31 5 33 6 10 6 178 -1 222 -9 30 -6 64 -12 75 -13 11 -2 23 -7 26 -11 4 -5
18 -10 33 -10 14 -1 26 -5 26 -9 0 -3 14 -11 31 -17 58 -20 168 -102 241 -180
257 -274 289 -691 76 -1004 -58 -85 -317 -343 -365 -364 -21 -9 -56 -17 -78
-19 -41 -2 -115 22 -115 38 0 5 -4 7 -9 4 -10 -7 -51 45 -69 87 -17 40 -14
106 7 152 11 23 76 98 153 176 148 149 179 193 204 289 24 93 14 176 -31 265
-38 76 -71 117 -125 155 -19 13 -38 29 -42 35 -4 5 -8 6 -8 2 0 -4 -10 -2 -22
5 -27 14 -27 14 -94 26 -58 10 -89 9 -154 -3 -25 -5 -47 -9 -50 -10 -3 0 -15
-6 -26 -13 -12 -6 -24 -8 -28 -5 -3 3 -6 1 -6 -5 0 -5 -15 -19 -32 -31 -43
-26 -314 -299 -371 -373 -103 -133 -180 -331 -196 -503 -16 -166 17 -378 66
-424 29 -27 97 -36 117 -15 8 7 16 11 19 8 2 -3 12 11 21 30 16 33 16 40 1 93
-9 32 -19 114 -22 183 -8 185 24 305 120 460 23 36 44 67 47 70 3 3 71 73 153
156 81 83 147 148 147 145 0 -3 7 3 15 13 8 11 15 17 15 13 0 -4 13 -1 29 7
16 9 31 12 34 9 4 -3 13 0 21 6 10 8 16 9 21 1 3 -5 15 -10 26 -10 33 0 96
-38 122 -72 27 -36 47 -89 47 -122 0 -67 -22 -101 -149 -228 -69 -70 -133
-135 -141 -145 -68 -86 -100 -171 -100 -267 0 -113 41 -210 124 -291 39 -38
101 -77 109 -68 4 3 7 1 7 -6 0 -7 5 -9 10 -6 6 3 10 1 10 -5 0 -7 7 -10 15
-7 8 4 17 2 20 -3 6 -10 13 -10 103 -11 81 0 95 2 110 14 6 5 12 6 12 3 0 -4
10 -1 23 6 12 6 27 13 34 14 27 5 85 55 223 193 166 166 224 238 280 348 230
449 88 1004 -331 1289 -73 50 -205 114 -234 114 -8 0 -15 5 -15 11 0 5 -4 7
-10 4 -5 -3 -16 -3 -22 1 -7 5 -22 9 -33 11 -31 5 -60 10 -65 13 -3 1 -16 3
-30 5 -14 1 -27 3 -30 4 -15 7 -175 5 -193 -2z"/>
<path d="M1297 2233 c-2 -1 -18 -5 -36 -8 -19 -3 -59 -15 -90 -26 -31 -11 -61
-21 -66 -22 -6 -1 -34 -17 -63 -35 -28 -17 -52 -30 -52 -27 0 16 -381 -369
-434 -440 -51 -67 -156 -241 -156 -257 0 -5 -9 -27 -19 -51 -47 -101 -90 -299
-77 -350 17 -68 144 -86 177 -25 6 12 19 59 29 107 35 167 106 323 209 461 59
79 315 334 386 385 33 24 73 47 88 50 15 4 27 10 27 14 0 4 12 8 27 9 15 1 29
6 32 10 3 4 49 7 101 5 104 -2 129 -5 148 -17 6 -4 16 -5 21 -2 5 4 11 3 13
-1 1 -5 19 -16 38 -25 87 -43 147 -96 206 -183 95 -141 107 -342 29 -495 -34
-67 -26 -57 -184 -218 -133 -137 -151 -161 -151 -208 0 -27 53 -89 69 -80 5 3
11 1 13 -6 10 -30 79 21 224 168 109 109 162 171 189 219 128 228 123 496 -12
718 -32 52 -176 213 -185 206 -4 -4 -102 54 -109 64 -3 5 -9 8 -13 7 -6 -2
-18 2 -81 26 -11 4 -23 8 -27 9 -5 2 -11 4 -15 5 -5 1 -12 2 -17 1 -5 -1 -16
1 -25 5 -14 6 -209 13 -214 7z"/>
<path d="M1358 1626 c-36 -15 -338 -313 -338 -333 0 -3 -13 -24 -28 -47 -62
-92 -109 -290 -96 -411 17 -171 79 -307 191 -422 57 -58 118 -105 127 -96 3 4
6 2 6 -3 0 -6 18 -11 40 -11 22 0 40 4 40 10 0 6 3 7 7 4 12 -13 53 44 53 74
0 30 -27 89 -41 89 -3 0 -18 11 -33 25 -14 13 -26 22 -26 19 0 -11 -49 45 -83
95 -52 75 -77 164 -77 271 0 175 50 269 239 455 134 131 156 162 146 204 -12
56 -81 97 -127 77z"/>
</g>
</svg>
