<svg width="57" height="57" viewBox="0 0 57 57" fill="none" xmlns="http://www.w3.org/2000/svg">
<path d="M51.1408 16.8904C51.177 17.3967 51.177 17.9032 51.177 18.4095C51.177 33.8529 39.4226 51.6474 17.9391 51.6474C11.3204 51.6474 5.17197 49.7304 0 46.4032C0.940389 46.5116 1.84448 46.5478 2.82105 46.5478C8.28226 46.5478 13.3096 44.7033 17.3242 41.5567C12.1884 41.4482 7.88448 38.0846 6.40159 33.4551C7.125 33.5636 7.8483 33.6359 8.60789 33.6359C9.65671 33.6359 10.7056 33.4912 11.6821 33.2382C6.32934 32.153 2.31462 27.4513 2.31462 21.773V21.6284C3.86977 22.4964 5.67829 23.0389 7.59503 23.1112C4.44845 21.0134 2.38699 17.4329 2.38699 13.3821C2.38699 11.2121 2.96556 9.2229 3.97831 7.48685C9.72896 14.5757 18.373 19.205 28.0658 19.7115C27.885 18.8434 27.7765 17.9393 27.7765 17.0351C27.7765 10.5973 32.9846 5.35303 39.4586 5.35303C42.8221 5.35303 45.8602 6.76355 47.9941 9.04211C50.6343 8.53579 53.166 7.55922 55.4085 6.22105C54.5403 8.93367 52.6958 11.2122 50.2727 12.6588C52.6236 12.4058 54.9021 11.7546 56.9998 10.8505C55.4087 13.1651 53.4194 15.2266 51.1408 16.8904Z" fill="#7ACBCB"/>
</svg>
